<svg xmlns="http://www.w3.org/2000/svg" xmlns:xlink="http://www.w3.org/1999/xlink" viewBox="0 0 154.94 18.37"><defs><style>.cls-1{fill:none;}.cls-2{clip-path:url(#clip-path);}.cls-3{fill:#f36c28;}.cls-4{fill:#0098cd;}</style><clipPath id="clip-path" transform="translate(0 0)"><rect class="cls-1" width="154.94" height="18.37"/></clipPath></defs><g id="Слой_2" data-name="Слой 2"><g id="text"><g class="cls-2"><path class="cls-3" d="M0,9.18C0,3.73,4.13,0,9.45,0a8.15,8.15,0,0,1,7.43,4.34l-3.25,1.6A4.82,4.82,0,0,0,9.45,3.35,5.53,5.53,0,0,0,3.89,9.18,5.52,5.52,0,0,0,9.45,15a4.77,4.77,0,0,0,4.18-2.58L16.88,14a8.19,8.19,0,0,1-7.43,4.37C4.13,18.37,0,14.64,0,9.18Z" transform="translate(0 0)"/><path class="cls-3" d="M26.58,13.36a3.39,3.39,0,0,0-2.71-1.12c-1.33,0-2.42.7-2.42,1.95s1.09,1.89,2.42,1.89A3.39,3.39,0,0,0,26.58,15v-1.6Zm0,3.36a5.34,5.34,0,0,1-4.07,1.65A4.29,4.29,0,0,1,18,14.11c0-3,2.42-4.1,4.47-4.1a5.19,5.19,0,0,1,4.07,1.57V9.8c0-1.31-1.11-2.16-2.82-2.16A5.42,5.42,0,0,0,20,9.16L18.73,6.89a8.45,8.45,0,0,1,5.62-2C27.28,4.87,30,6,30,9.74v8.31H26.58V16.72Z" transform="translate(0 0)"/><path class="cls-3" d="M33,14a7.35,7.35,0,0,0,4.44,1.76c1.47,0,2.16-.59,2.16-1.39S38.43,13.26,37,13C34.81,12.56,32,12,32,8.92c0-2.16,1.89-4,5.27-4a8.23,8.23,0,0,1,5.19,1.76L41.06,8.94a5.43,5.43,0,0,0-3.8-1.49c-1.23,0-2,.56-2,1.28s1,1,2.45,1.25c2.21.43,5.17,1,5.17,4.26,0,2.34-2,4.13-5.57,4.13a8.68,8.68,0,0,1-5.75-2L33,14Z" transform="translate(0 0)"/></g><path class="cls-3" d="M53.39,10.22c0-1.78-.94-2.34-2.4-2.34A3.74,3.74,0,0,0,48.06,9.4v8.65H44.68V.29h3.38V6.87a5.94,5.94,0,0,1,4.53-2c2.82,0,4.18,1.54,4.18,4.05v9.13H53.39V10.22Z" transform="translate(0 0)"/><g class="cls-2"><polygon class="cls-3" points="62.84 6.47 62.84 18.05 59.06 18.05 59.06 0.29 62.95 0.29 71.17 11.45 71.17 0.29 74.95 0.29 74.95 18.05 71.31 18.05 62.84 6.47 62.84 6.47"/><path class="cls-3" d="M80.38,10.41h6.34a3,3,0,0,0-3.17-2.85,3.09,3.09,0,0,0-3.17,2.85Zm3.17-5.54C87.38,4.87,90,7.75,90,12v.75H80.44a3.46,3.46,0,0,0,3.7,3,5.27,5.27,0,0,0,3.43-1.28l1.49,2.18a8,8,0,0,1-5.3,1.79,6.51,6.51,0,0,1-6.86-6.76,6.54,6.54,0,0,1,6.65-6.74Z" transform="translate(0 0)"/><path class="cls-3" d="M92.44,14.85V8.15H90.31v-3h2.13V1.68h3.41V5.19h2.61v3H95.85V14c0,.8.42,1.41,1.17,1.41A1.9,1.9,0,0,0,98.19,15l.72,2.55a4.19,4.19,0,0,1-2.82.83c-2.37,0-3.65-1.23-3.65-3.52Z" transform="translate(0 0)"/><path class="cls-4" d="M100.18.29H104V10.83a4.17,4.17,0,1,0,8.33,0V.29h3.86V10.94c0,4.42-2.61,7.43-8,7.43s-8-3-8-7.4V.29Z" transform="translate(0 0)"/><path class="cls-4" d="M119.41,12.67a7.79,7.79,0,0,0,5.64,2.4c2.08,0,3.09-1,3.09-2,0-1.31-1.65-1.68-3.59-2.16-2.9-.67-6.63-1.46-6.63-5.51,0-2.95,2.55-5.4,6.73-5.4a9.88,9.88,0,0,1,6.92,2.47l-2.1,2.77a7.62,7.62,0,0,0-5.16-1.94c-1.63,0-2.53.72-2.53,1.78s1.62,1.52,3.54,2c2.93.69,6.65,1.57,6.65,5.59,0,3.25-2.31,5.7-7.1,5.7a10.15,10.15,0,0,1-7.51-2.82l2-2.88Z" transform="translate(0 0)"/></g><path class="cls-4" d="M138.25,11.71h5.54L141,4.07l-2.77,7.64ZM144.83,15h-7.61l-1.12,3h-4.31L138.65.29h4.74l6.84,17.76h-4.31l-1.09-3Z" transform="translate(0 0)"/><path class="cls-4" d="M152.76,16.25H153c.23,0,.42-.08.42-.27s-.12-.28-.39-.28l-.24,0v.53Zm0,1.05h-.43V15.45a3.28,3.28,0,0,1,.71-.06,1.17,1.17,0,0,1,.65.14.51.51,0,0,1,.18.4.47.47,0,0,1-.39.43v0a.57.57,0,0,1,.34.46,1.36,1.36,0,0,0,.14.46h-.47a1.71,1.71,0,0,1-.14-.45c0-.21-.15-.3-.39-.3h-.2v.75Zm-1.14-1a1.44,1.44,0,0,0,1.45,1.48,1.41,1.41,0,0,0,1.4-1.47,1.43,1.43,0,1,0-2.85,0Zm3.33,0a1.9,1.9,0,1,1-1.9-1.85,1.86,1.86,0,0,1,1.9,1.85Z" transform="translate(0 0)"/></g></g></svg>