<svg xmlns="http://www.w3.org/2000/svg" viewBox="0 0 448.05 175.31"><defs><style>.cls-1{fill:#282828;}.cls-2{fill:#dd2c35;}.cls-3{fill:red;}.cls-4{fill:#fff;}</style></defs><g id="Слой_2" data-name="Слой 2"><g id="text"><path class="cls-1" d="M8.17,18.13H5.89V2.07H.25v-2H13.78v2H8.17Z"/><path class="cls-1" d="M30.32,18.13H28V9.71H18.79v8.42H16.51V.08h2.28V7.71H28V.08h2.28Z"/><path class="cls-1" d="M45.34,18.13H35.25V.08H45.34v2H37.52V7.71h7.36v2H37.52v6.45h7.82Z"/><path class="cls-1" d="M67.21,18.13,65,12.54H57.88l-2.15,5.59h-2.3L60.48,0h2.05l7,18.13ZM62.33,5.06c0-.14-.14-.38-.25-.74s-.24-.72-.35-1.1-.19-.67-.26-.87c-.12.52-.25,1-.41,1.53s-.27.89-.38,1.18l-2,5.46h5.71Z"/><path class="cls-1" d="M72,18.13V.08h2.27v16H82.2v2Z"/><path class="cls-1" d="M85.29,18.13V.08h2.27v16h7.89v2Z"/><path class="cls-1" d="M97.1,12.34v-2h6.11v2Z"/><path class="cls-1" d="M111.38,18.13h-2.27V2.07h-5.64v-2H117v2h-5.62Z"/><path class="cls-1" d="M124.81,18.13h-6.53V16.81l2.13-.48V1.9l-2.13-.51V.08h6.53V1.39l-2.13.51V16.33l2.13.48Z"/><path class="cls-1" d="M136.26,18.13,130.32,2.3h-.1c.05.52.09,1.23.13,2.11s.05,1.81.05,2.77v11h-2.1V.08h3.36l5.56,14.79h.1L143,.08h3.34V18.13h-2.25V7c0-.88,0-1.75.06-2.6s.08-1.56.11-2.1h-.1l-6,15.8Z"/><path class="cls-1" d="M161.32,18.13H151.23V.08h10.09v2h-7.81V7.71h7.36v2h-7.36v6.45h7.81Z"/><path class="cls-1" d="M6.91,172.32h-6v-1.21l1.94-.44V157.44L.93,157v-1.2h6V157L5,157.44v13.23l2,.44Z"/><path class="cls-1" d="M23.22,172.32H20.79l-8.85-13.75h-.1c0,.54.07,1.22.12,2s.07,1.63.07,2.48v9.25H10.11V155.77h2.41l8.83,13.7h.09c0-.25,0-.62-.06-1.12s0-1-.07-1.62,0-1.13,0-1.62v-9.34h1.94Z"/><path class="cls-2" d="M49.14,172.32H39.61V155.77h9.53v2.87h-6v3.64h5.61v2.88H43.11v4.26h6Z"/><path class="cls-2" d="M65.57,155.77l-5.63,16.55H56.11l-5.6-16.55h3.54l3.11,9.85c.06.17.15.48.26.94s.24.93.36,1.43a12.52,12.52,0,0,1,.26,1.27c0-.34.13-.76.24-1.27s.24-1,.36-1.43.21-.77.26-.94L62,155.77Z"/><path class="cls-2" d="M77.18,172.32H67.66V155.77h9.52v2.87h-6v3.64h5.61v2.88H71.16v4.26h6Z"/><path class="cls-2" d="M85.46,155.77a8.22,8.22,0,0,1,5,1.23,5,5,0,0,1,1.19,5.71,4.72,4.72,0,0,1-1.14,1.44,7,7,0,0,1-1.52,1l4.87,7.21H90L86,166H84.14v6.35h-3.5V155.77Zm-.26,2.87H84.14v4.48h1.13a4.18,4.18,0,0,0,2.49-.58,2,2,0,0,0,.76-1.72,1.82,1.82,0,0,0-.8-1.68A4.91,4.91,0,0,0,85.2,158.64Z"/><path class="cls-2" d="M101.08,162.58l3.45-6.81h3.78l-5.49,10.1v6.45H99.34V166l-5.49-10.22h3.8Z"/><path class="cls-2" d="M123.45,158.46a3.57,3.57,0,0,0-3.09,1.5,7.06,7.06,0,0,0-1.06,4.13,7.27,7.27,0,0,0,1,4.09,3.56,3.56,0,0,0,3.17,1.45,9.36,9.36,0,0,0,2-.23,21.47,21.47,0,0,0,2.19-.65v2.94a11.52,11.52,0,0,1-2.16.65,12.43,12.43,0,0,1-2.39.21,7.61,7.61,0,0,1-4.2-1.06,6.22,6.22,0,0,1-2.45-3,11.76,11.76,0,0,1-.79-4.46,10.19,10.19,0,0,1,.91-4.43,7,7,0,0,1,2.63-3,7.74,7.74,0,0,1,4.23-1.09,10,10,0,0,1,2.47.31,13.12,13.12,0,0,1,2.37.85l-1.13,2.85a17.54,17.54,0,0,0-1.87-.77A5.8,5.8,0,0,0,123.45,158.46Z"/><path class="cls-2" d="M145.75,164a11.13,11.13,0,0,1-.85,4.49,6.52,6.52,0,0,1-2.59,3,9.75,9.75,0,0,1-8.88,0,6.38,6.38,0,0,1-2.6-3A11.13,11.13,0,0,1,130,164a11,11,0,0,1,.85-4.48,6.38,6.38,0,0,1,2.6-3,8.53,8.53,0,0,1,4.46-1.06,8.41,8.41,0,0,1,4.42,1.06,6.42,6.42,0,0,1,2.59,3A11,11,0,0,1,145.75,164Zm-12.08,0a7.26,7.26,0,0,0,1,4.09,4.18,4.18,0,0,0,6.42,0,9.13,9.13,0,0,0,0-8.19,3.55,3.55,0,0,0-3.2-1.49,3.58,3.58,0,0,0-3.22,1.49A7.23,7.23,0,0,0,133.67,164Z"/><path class="cls-2" d="M162.64,166.48a6.36,6.36,0,0,1-.75,3.09,5.32,5.32,0,0,1-2.27,2.18,8.25,8.25,0,0,1-3.84.8,6.9,6.9,0,0,1-5-1.68,5.94,5.94,0,0,1-1.71-4.44V155.77h3.5V165.9a4,4,0,0,0,.83,2.87,3.37,3.37,0,0,0,2.48.84,3.14,3.14,0,0,0,2.5-.91,4.31,4.31,0,0,0,.77-2.83v-10.1h3.5Z"/><path class="cls-2" d="M181.37,172.32h-4.45l-7.21-12.52h-.09c0,.79.06,1.58.1,2.37s.08,1.57.11,2.36v7.79H166.7V155.77h4.43l7.18,12.4h.07c0-.77,0-1.54-.07-2.3l-.09-2.27v-7.83h3.15Z"/><path class="cls-2" d="M191.92,172.32h-3.5V158.69h-4.5v-2.92h12.49v2.92h-4.49Z"/><path class="cls-2" d="M203.78,155.77a8.25,8.25,0,0,1,5,1.23,4.4,4.4,0,0,1,1.61,3.73,4.25,4.25,0,0,1-.43,2,4.69,4.69,0,0,1-1.13,1.44,7.19,7.19,0,0,1-1.52,1l4.86,7.21h-3.89L204.34,166h-1.88v6.35H199V155.77Zm-.25,2.87h-1.07v4.48h1.14a4.18,4.18,0,0,0,2.49-.58,2,2,0,0,0,.75-1.72,1.8,1.8,0,0,0-.8-1.68A4.9,4.9,0,0,0,203.53,158.64Z"/><path class="cls-2" d="M219.41,162.58l3.45-6.81h3.78l-5.5,10.1v6.45h-3.47V166l-5.5-10.22H216Z"/><path class="cls-2" d="M230.44,169.88a22.83,22.83,0,0,1-.86,2.69c-.37,1-.75,1.89-1.13,2.74H226c.21-.91.43-1.89.64-2.92s.38-2,.49-2.76h3.18Z"/><path class="cls-2" d="M245.11,155.77a10.68,10.68,0,0,1,5,.93,3.4,3.4,0,0,1,1.69,3.26,4.15,4.15,0,0,1-.66,2.39,2.73,2.73,0,0,1-1.89,1.18v.12a4.44,4.44,0,0,1,1.51.58,3,3,0,0,1,1.06,1.2,4.74,4.74,0,0,1,.4,2.09A4.21,4.21,0,0,1,250.6,171a7,7,0,0,1-4.45,1.28H240V155.77Zm.39,6.56a3.43,3.43,0,0,0,2.13-.49,1.72,1.72,0,0,0,.59-1.41,1.48,1.48,0,0,0-.7-1.37,4.4,4.4,0,0,0-2.2-.42h-1.86v3.69Zm-2,2.78v4.31h2.3a3.11,3.11,0,0,0,2.2-.61,2.19,2.19,0,0,0,.63-1.64,1.91,1.91,0,0,0-.64-1.49,3.52,3.52,0,0,0-2.31-.57Z"/><path class="cls-2" d="M260.69,162.58l3.45-6.81h3.78l-5.5,10.1v6.45H259V166l-5.5-10.22h3.81Z"/><path class="cls-2" d="M283.05,158.46A3.55,3.55,0,0,0,280,160a7.06,7.06,0,0,0-1.07,4.13,7.19,7.19,0,0,0,1,4.09,3.54,3.54,0,0,0,3.16,1.45,9.29,9.29,0,0,0,2-.23,21.47,21.47,0,0,0,2.19-.65v2.94a11.22,11.22,0,0,1-2.15.65,12.51,12.51,0,0,1-2.39.21,7.67,7.67,0,0,1-4.21-1.06,6.21,6.21,0,0,1-2.44-3,11.57,11.57,0,0,1-.79-4.46,10.34,10.34,0,0,1,.9-4.43,7,7,0,0,1,2.63-3,7.74,7.74,0,0,1,4.23-1.09,10,10,0,0,1,2.47.31,13,13,0,0,1,2.38.85l-1.14,2.85a18.29,18.29,0,0,0-1.86-.77A5.81,5.81,0,0,0,283.05,158.46Z"/><path class="cls-2" d="M300.92,172.32l-1.2-3.94h-6l-1.2,3.94h-3.78l5.84-16.62h4.29l5.86,16.62Zm-3.24-10.73-.3-1c-.13-.4-.25-.81-.37-1.23s-.23-.78-.31-1.09c-.07.31-.18.69-.31,1.15s-.25.89-.37,1.3a8.07,8.07,0,0,1-.27.87l-1.18,3.84h4.31Z"/><path class="cls-2" d="M311.54,172.32H308V158.69h-4.5v-2.92H316v2.92h-4.5Z"/><path class="cls-2" d="M328.11,172.32h-9.53V155.77h9.53v2.87h-6v3.64h5.61v2.88h-5.61v4.26h6Z"/><path class="cls-2" d="M337.84,163h6.56v8.58a19,19,0,0,1-2.7.69,17.78,17.78,0,0,1-3.18.26,7.32,7.32,0,0,1-5.7-2.18q-2-2.18-2-6.35a9.52,9.52,0,0,1,1-4.5,7,7,0,0,1,2.93-2.94,9.7,9.7,0,0,1,4.71-1,12.44,12.44,0,0,1,2.59.27,12.14,12.14,0,0,1,2.32.75l-1.16,2.8a8.64,8.64,0,0,0-1.74-.65,8,8,0,0,0-2-.25,5,5,0,0,0-2.65.69,4.67,4.67,0,0,0-1.74,2,6.75,6.75,0,0,0-.61,3,8.44,8.44,0,0,0,.44,2.87,3.94,3.94,0,0,0,1.39,2,4.05,4.05,0,0,0,2.48.71,9.15,9.15,0,0,0,1.26-.07c.35-.05.67-.1,1-.16v-3.46h-3.13Z"/><path class="cls-2" d="M363.36,164a11.14,11.14,0,0,1-.84,4.49,6.52,6.52,0,0,1-2.59,3,9.77,9.77,0,0,1-8.89,0,6.42,6.42,0,0,1-2.59-3,11,11,0,0,1-.85-4.49,10.85,10.85,0,0,1,.85-4.48,6.42,6.42,0,0,1,2.59-3,8.6,8.6,0,0,1,4.47-1.06,8.41,8.41,0,0,1,4.42,1.06,6.42,6.42,0,0,1,2.59,3A11,11,0,0,1,363.36,164Zm-12.07,0a7.26,7.26,0,0,0,1,4.09,4.18,4.18,0,0,0,6.42,0,9.13,9.13,0,0,0,0-8.19,3.55,3.55,0,0,0-3.2-1.49,3.58,3.58,0,0,0-3.22,1.49A7.23,7.23,0,0,0,351.29,164Z"/><path class="cls-2" d="M371.62,155.77a8.22,8.22,0,0,1,5,1.23,4.4,4.4,0,0,1,1.61,3.73,4.25,4.25,0,0,1-.43,2,4.55,4.55,0,0,1-1.13,1.44,7,7,0,0,1-1.52,1l4.87,7.21h-3.9L372.17,166h-1.88v6.35h-3.5V155.77Zm-.26,2.87h-1.07v4.48h1.14a4.18,4.18,0,0,0,2.49-.58,2.05,2.05,0,0,0,.76-1.72,1.82,1.82,0,0,0-.8-1.68A5,5,0,0,0,371.36,158.64Z"/><path class="cls-2" d="M387.24,162.58l3.45-6.81h3.78L389,165.87v6.45H385.5V166L380,155.77h3.8Z"/><path class="cls-1" d="M7.41,77.91V40.76H.65V34.1H23v6.66H16.39V77.91Z"/><path class="cls-1" d="M38.89,78.51a14.52,14.52,0,0,1-7.63-1.73,9.65,9.65,0,0,1-4-5A21.89,21.89,0,0,1,26,64.12V47.79a21.63,21.63,0,0,1,1.22-7.68,9.35,9.35,0,0,1,4-4.87,14.83,14.83,0,0,1,7.63-1.68,14.87,14.87,0,0,1,7.7,1.71,9.42,9.42,0,0,1,4.06,4.87,21.34,21.34,0,0,1,1.22,7.65V64.12a21.89,21.89,0,0,1-1.22,7.71,9.6,9.6,0,0,1-4.06,5A14.76,14.76,0,0,1,38.89,78.51Zm0-6.44a3.56,3.56,0,0,0,2.54-.78,4,4,0,0,0,1.08-2.11,14.26,14.26,0,0,0,.27-2.84V45.62a13.89,13.89,0,0,0-.27-2.81,3.93,3.93,0,0,0-1.08-2.08A3.56,3.56,0,0,0,38.89,40a3.39,3.39,0,0,0-2.44.78,3.93,3.93,0,0,0-1.08,2.08,13.89,13.89,0,0,0-.27,2.81V66.34a16,16,0,0,0,.24,2.84,3.89,3.89,0,0,0,1.06,2.11A3.47,3.47,0,0,0,38.89,72.07Z"/><path class="cls-1" d="M57.81,77.91V34.1h13.9a12.43,12.43,0,0,1,6.44,1.49,9,9,0,0,1,3.7,4.3,17,17,0,0,1,1.22,6.82,14.3,14.3,0,0,1-1.59,7.35,8.85,8.85,0,0,1-4.36,3.76,16.86,16.86,0,0,1-6.33,1.11H66.74v19Zm8.93-25.25h3.13a5.94,5.94,0,0,0,3-.63,3.15,3.15,0,0,0,1.43-2,13.25,13.25,0,0,0,.38-3.46,15.89,15.89,0,0,0-.3-3.36,3.43,3.43,0,0,0-1.32-2.1,5.5,5.5,0,0,0-3.25-.76H66.74Z"/><path class="cls-1" d="M87.34,62.17V56.82h13.58v5.35Z"/><path class="cls-1" d="M107.46,77.91V34.1h19.09v6.17H116.39V51.9h7.84v6.22h-7.84V71.85h10.27v6.06Z"/><path class="cls-1" d="M129,77.91l8.49-43.81h9.89l8.44,43.81h-8.27L146,68.29h-6.92l-1.68,9.62Zm10.87-15.09h5.24l-2.65-17.68Z"/><path class="cls-1" d="M159.92,77.91V34.1h11.36a25.3,25.3,0,0,1,7.6,1,8.76,8.76,0,0,1,4.86,3.54,12.47,12.47,0,0,1,1.71,7,22.66,22.66,0,0,1-.46,4.78,9.39,9.39,0,0,1-1.62,3.63,8,8,0,0,1-3.28,2.46l6.06,21.36H177l-5-19.85h-3.14V77.91Zm8.92-25.15h2.6a7,7,0,0,0,3.41-.7,3.88,3.88,0,0,0,1.76-2.14,10.6,10.6,0,0,0,.51-3.54A8,8,0,0,0,176,41.76c-.74-1.07-2.12-1.6-4.14-1.6h-3Z"/><path class="cls-1" d="M191.29,77.91V34.1h6.22l9.73,22.83V34.1h7.36V77.91h-5.95l-9.73-24.23V77.91Z"/><path class="cls-1" d="M221.36,77.91V34.1h8.87V77.91Z"/><path class="cls-1" d="M236.93,77.91V34.1h6.22l9.74,22.83V34.1h7.35V77.91H254.3l-9.74-24.23V77.91Z"/><path class="cls-1" d="M278.09,78.56a11.84,11.84,0,0,1-7-1.86,10.1,10.1,0,0,1-3.7-5.3,26,26,0,0,1-1.11-8V48.76a25.94,25.94,0,0,1,1.13-8.11,9.75,9.75,0,0,1,4-5.25,14.08,14.08,0,0,1,7.7-1.84,15,15,0,0,1,7.44,1.57,9,9,0,0,1,3.92,4.44,17.57,17.57,0,0,1,1.19,6.81v2.54H282.9V45.84a19.64,19.64,0,0,0-.21-3.05,3.68,3.68,0,0,0-1-2.09,3.55,3.55,0,0,0-2.52-.75,3.26,3.26,0,0,0-2.59.92,4.42,4.42,0,0,0-1,2.35,19.62,19.62,0,0,0-.22,3.05V65.69a15,15,0,0,0,.33,3.3,4.19,4.19,0,0,0,1.21,2.27,3.72,3.72,0,0,0,2.57.81,3.67,3.67,0,0,0,2.6-.86,4.57,4.57,0,0,0,1.27-2.36,14.94,14.94,0,0,0,.35-3.38V60.82h-4.27V55.41h12.33v22.5h-5.84l-.54-4a8,8,0,0,1-2.6,3.3A7.53,7.53,0,0,1,278.09,78.56Z"/><path class="cls-1" d="M239.78,137.73a14.05,14.05,0,0,1-7.71-1.84,9.7,9.7,0,0,1-4-5.11,23.06,23.06,0,0,1-1.14-7.6V107.45a23.85,23.85,0,0,1,1.14-7.82,9.47,9.47,0,0,1,4-5.06,17.85,17.85,0,0,1,15.09-.21A8.57,8.57,0,0,1,251,98.79a18.35,18.35,0,0,1,1.11,6.65v3.68H243.4V105a23.14,23.14,0,0,0-.16-2.84,3.92,3.92,0,0,0-.89-2.16,3.21,3.21,0,0,0-2.52-.84,3.39,3.39,0,0,0-2.59.87,4.06,4.06,0,0,0-1,2.24,20.36,20.36,0,0,0-.22,3.06v19.9a15.27,15.27,0,0,0,.3,3.22,3.76,3.76,0,0,0,1.14,2.11,3.58,3.58,0,0,0,2.4.73,3.1,3.1,0,0,0,2.46-.84,4.12,4.12,0,0,0,.92-2.25,21.5,21.5,0,0,0,.19-3V121h8.66v3.62a19.7,19.7,0,0,1-1.08,6.79,9.21,9.21,0,0,1-3.74,4.65Q244.6,137.73,239.78,137.73Z"/><path class="cls-1" d="M257.63,137.14V93.33h8.92v18h7.74v-18h8.92v43.81h-8.92V117.72h-7.74v19.42Z"/><path class="cls-1" d="M287.81,137.14l8.49-43.81h9.89l8.44,43.81h-8.27l-1.57-9.63h-6.93l-1.67,9.63Zm10.87-15.09h5.24l-2.65-17.69Z"/><path class="cls-1" d="M318.74,137.14V93.33H325l9.74,22.82V93.33h7.35v43.81H336.1l-9.73-24.23v24.23Z"/><path class="cls-1" d="M348.7,137.14V93.33h6.22l9.74,22.82V93.33H372v43.81h-5.95l-9.73-24.23v24.23Z"/><path class="cls-1" d="M378.66,137.14V93.33h19.09V99.5H387.59v11.62h7.84v6.22h-7.84v13.74h10.27v6.06Z"/><path class="cls-1" d="M402.35,137.14V93.33h8.92v37.75h10.28v6.06Z"/><path class="cls-1" d="M436.8,137.73a13.91,13.91,0,0,1-6.76-1.48,9.51,9.51,0,0,1-4.08-4.49,20.84,20.84,0,0,1-1.6-7.66l7.68-1.29a22,22,0,0,0,.57,4.51A5.48,5.48,0,0,0,434,130a3.3,3.3,0,0,0,2.35.89,2.47,2.47,0,0,0,2.35-1.08,5,5,0,0,0,.62-2.49,7.83,7.83,0,0,0-1.32-4.63,22.49,22.49,0,0,0-3.49-3.75L430,115a18.23,18.23,0,0,1-4-4.65,12.29,12.29,0,0,1-1.54-6.39q0-5.4,3.16-8.3c2.11-1.93,5-2.89,8.68-2.89a11.83,11.83,0,0,1,5.41,1.08A8.34,8.34,0,0,1,445,96.76a12.12,12.12,0,0,1,1.62,3.95,27.21,27.21,0,0,1,.56,4.25l-7.62,1.13a34.07,34.07,0,0,0-.35-3.51,4.77,4.77,0,0,0-1-2.38,2.68,2.68,0,0,0-2.19-.87,2.57,2.57,0,0,0-2.32,1.17,4.56,4.56,0,0,0-.76,2.57,6.38,6.38,0,0,0,1.06,3.81,18.33,18.33,0,0,0,2.89,3.11l4.43,3.89a25.36,25.36,0,0,1,4.74,5.44,13.65,13.65,0,0,1,2,7.54,11.09,11.09,0,0,1-1.41,5.57,10,10,0,0,1-3.92,3.9A12,12,0,0,1,436.8,137.73Z"/><path class="cls-3" d="M66.16,100.1a8.48,8.48,0,0,0-6-6c-5.26-1.41-26.4-1.41-26.4-1.41s-21.13,0-26.39,1.41a8.48,8.48,0,0,0-6,6C0,105.36,0,116.36,0,116.36s0,11,1.41,16.26a8.48,8.48,0,0,0,6,6C12.65,140,33.78,140,33.78,140s21.14,0,26.4-1.41a8.48,8.48,0,0,0,6-6c1.41-5.26,1.41-16.26,1.41-16.26S67.56,105.36,66.16,100.1Z"/><path class="cls-4" d="M27,126.49l17.56-10.13L27,106.23Z"/><g id="youtube-paths"><path class="cls-1" d="M81.84,123.46l-7.59-27.4h6.62l2.66,12.42c.68,3.06,1.17,5.67,1.49,7.83h.2q.33-2.32,1.49-7.78l2.76-12.47h6.62l-7.68,27.4v13.15H81.83V123.46Z"/><path class="cls-1" d="M98.08,135.74a7.4,7.4,0,0,1-2.86-4.21,27.63,27.63,0,0,1-.84-7.58v-4.3a24.79,24.79,0,0,1,1-7.69,7.65,7.65,0,0,1,3-4.22,9.74,9.74,0,0,1,5.39-1.33,9.18,9.18,0,0,1,5.26,1.35,7.73,7.73,0,0,1,2.9,4.23,26,26,0,0,1,.92,7.66V124a26.47,26.47,0,0,1-.89,7.6,7.51,7.51,0,0,1-2.9,4.21,9.79,9.79,0,0,1-5.44,1.33A9.77,9.77,0,0,1,98.08,135.74Zm7.49-4.64a14.75,14.75,0,0,0,.55-4.73v-9.23a14.26,14.26,0,0,0-.55-4.66,2,2,0,0,0-2-1.48,2,2,0,0,0-1.91,1.48,14.21,14.21,0,0,0-.56,4.66v9.23a14.77,14.77,0,0,0,.54,4.73,1.93,1.93,0,0,0,1.93,1.45A2,2,0,0,0,105.57,131.1Z"/><path class="cls-1" d="M134.37,136.61h-5.22l-.57-3.62h-.15a6.83,6.83,0,0,1-6.38,4.1,5,5,0,0,1-4.35-1.93q-1.4-1.93-1.4-6V107H123v21.74a6.69,6.69,0,0,0,.43,2.83,1.51,1.51,0,0,0,1.45.84,3,3,0,0,0,1.67-.53,3.34,3.34,0,0,0,1.19-1.35V107h6.66Z"/><path class="cls-1" d="M152.49,101.43h-6.62v35.18h-6.53V101.43h-6.61V96.07h19.76Z"/><path class="cls-1" d="M168.57,136.61h-5.21l-.58-3.62h-.15a6.82,6.82,0,0,1-6.38,4.1,5,5,0,0,1-4.35-1.93q-1.4-1.93-1.4-6V107h6.67v21.74a6.66,6.66,0,0,0,.44,2.83,1.49,1.49,0,0,0,1.45.84,3,3,0,0,0,1.67-.53,3.39,3.39,0,0,0,1.18-1.35V107h6.66Z"/><path class="cls-1" d="M190.64,111.72a7.61,7.61,0,0,0-1.95-4.06A5.24,5.24,0,0,0,185,106.4a6.22,6.22,0,0,0-3.44,1,7.18,7.18,0,0,0-2.46,2.73h0V94.57H172.6v42h5.5l.68-2.81h.15a5.67,5.67,0,0,0,2.31,2.37,6.9,6.9,0,0,0,3.44.87,5.24,5.24,0,0,0,5-3.12q1.6-3.12,1.6-9.73V119.5A38.33,38.33,0,0,0,190.64,111.72Zm-6.11,12.09a36.74,36.74,0,0,1-.27,5.07,5.39,5.39,0,0,1-.89,2.61,2.06,2.06,0,0,1-1.69.77,3.11,3.11,0,0,1-1.53-.39,2.91,2.91,0,0,1-1.13-1.15V113.9a4.15,4.15,0,0,1,1.16-2,2.56,2.56,0,0,1,1.79-.77,1.79,1.79,0,0,1,1.57.79,6.26,6.26,0,0,1,.77,2.68,51.44,51.44,0,0,1,.22,5.37v3.82Z"/><path class="cls-1" d="M200.71,125.51a40.19,40.19,0,0,0,.17,4.28,4,4,0,0,0,.7,2.08,2,2,0,0,0,1.64.65,2.06,2.06,0,0,0,2.05-1.16,9.83,9.83,0,0,0,.61-3.87l5.75.34a9.68,9.68,0,0,1,.05,1.07c0,2.73-.75,4.78-2.25,6.13a9.14,9.14,0,0,1-6.35,2q-4.94,0-6.91-3.09t-2-9.57v-5.17q0-6.66,2.06-9.74c1.36-2,3.71-3.07,7-3.07a9.25,9.25,0,0,1,5.26,1.26,6.72,6.72,0,0,1,2.59,3.91,28.31,28.31,0,0,1,.75,7.35V124H200.71Zm.85-14a4.12,4.12,0,0,0-.68,2.06,40.8,40.8,0,0,0-.17,4.32v2.13h4.88v-2.13a37.94,37.94,0,0,0-.19-4.32,4.1,4.1,0,0,0-.71-2.08,1.93,1.93,0,0,0-1.56-.61A1.9,1.9,0,0,0,201.56,111.55Z"/></g></g></g></svg>